<?xml version="1.0" standalone="no"?>
<!DOCTYPE svg PUBLIC "-//W3C//DTD SVG 20010904//EN"
 "http://www.w3.org/TR/2001/REC-SVG-20010904/DTD/svg10.dtd">
<svg version="1.0" xmlns="http://www.w3.org/2000/svg"
 width="512.000000pt" height="512.000000pt" viewBox="0 0 512.000000 512.000000"
 preserveAspectRatio="xMidYMid meet">
<metadata>
Created by potrace 1.14, written by Peter Selinger 2001-2017
</metadata>
<g transform="translate(0.000000,512.000000) scale(0.100000,-0.100000)"
fill="#000000" stroke="none">
<path d="M868 4342 c-15 -2 -37 -15 -47 -29 -20 -24 -20 -43 -21 -846 -1 -452
-1 -829 -1 -837 0 -8 0 -114 0 -235 -1 -121 -1 -227 -1 -235 1 -8 1 -176 1
-372 1 -197 5 -369 11 -382 17 -47 31 -48 397 -48 189 0 345 -4 348 -8 2 -3 7
-22 10 -41 9 -53 25 -141 30 -169 3 -14 12 -65 21 -115 8 -49 17 -101 20 -115
46 -257 50 -265 117 -264 23 0 58 3 77 7 57 11 81 15 175 32 50 8 102 17 118
20 15 3 37 7 50 9 12 2 63 11 112 21 50 9 101 19 115 21 14 2 34 5 45 7 11 3
54 10 95 17 41 6 91 15 110 20 19 5 53 11 75 15 37 5 208 36 280 50 17 3 46 8
65 10 19 3 46 7 60 10 28 6 29 6 150 29 47 8 102 18 124 22 21 3 48 8 60 10
11 2 35 7 51 9 17 3 55 10 85 15 30 6 69 12 85 15 17 3 41 8 55 10 14 3 38 8
54 11 57 10 42 -9 385 484 17 25 59 86 93 135 93 135 129 187 168 241 43 61
44 87 9 259 -5 28 -12 66 -15 85 -2 19 -9 55 -14 80 -4 25 -13 72 -19 105 -6
33 -23 123 -37 200 -14 77 -27 151 -29 165 -3 24 -9 58 -20 110 -3 14 -8 43
-11 65 -2 22 -11 72 -19 110 -8 39 -16 84 -18 100 -6 39 -25 143 -33 175 -3
14 -8 41 -10 60 -2 19 -12 71 -20 115 -9 44 -17 89 -19 100 -3 21 -31 181 -40
225 -5 23 -9 46 -19 110 -11 66 -26 114 -39 127 -18 19 -67 23 -118 12 -22 -5
-56 -12 -77 -15 -20 -3 -52 -9 -69 -14 -27 -7 -33 -6 -34 8 -1 9 -3 70 -4 134
-3 110 -4 119 -26 138 -13 10 -40 20 -59 20 -87 3 -2808 5 -2832 2z"/>
</g>
</svg>
